<mxfile host="app.diagrams.net" modified="2022-05-25T06:37:06.748Z" agent="5.0 (X11)" etag="2T4SA76_slb5pZJDQh9D" version="18.1.2" type="github">
  <diagram id="KHhg7IiPmLpWUpVYHb9x" name="Page-1">
    <mxGraphModel dx="1673" dy="893" grid="1" gridSize="10" guides="1" tooltips="1" connect="1" arrows="1" fold="1" page="1" pageScale="1" pageWidth="400" pageHeight="200" math="0" shadow="0">
      <root>
        <mxCell id="0" />
        <mxCell id="1" parent="0" />
        <mxCell id="QVqDBM_UYHWOgr-D1qs_-22" style="edgeStyle=orthogonalEdgeStyle;rounded=0;orthogonalLoop=1;jettySize=auto;html=1;exitX=1;exitY=0.5;exitDx=0;exitDy=0;entryX=0;entryY=0.5;entryDx=0;entryDy=0;" edge="1" parent="1" source="QVqDBM_UYHWOgr-D1qs_-1" target="QVqDBM_UYHWOgr-D1qs_-6">
          <mxGeometry relative="1" as="geometry" />
        </mxCell>
        <mxCell id="QVqDBM_UYHWOgr-D1qs_-1" value="Criteria Specification" style="rounded=1;whiteSpace=wrap;html=1;" vertex="1" parent="1">
          <mxGeometry x="160" y="159.94" width="120" height="60" as="geometry" />
        </mxCell>
        <mxCell id="QVqDBM_UYHWOgr-D1qs_-24" style="edgeStyle=orthogonalEdgeStyle;rounded=0;orthogonalLoop=1;jettySize=auto;html=1;entryX=0;entryY=0.5;entryDx=0;entryDy=0;entryPerimeter=0;" edge="1" parent="1" source="QVqDBM_UYHWOgr-D1qs_-6" target="QVqDBM_UYHWOgr-D1qs_-9">
          <mxGeometry relative="1" as="geometry" />
        </mxCell>
        <mxCell id="QVqDBM_UYHWOgr-D1qs_-6" value="Recruitment / Job Advertisement" style="rounded=0;whiteSpace=wrap;html=1;" vertex="1" parent="1">
          <mxGeometry x="320" y="159.94" width="120" height="60" as="geometry" />
        </mxCell>
        <mxCell id="QVqDBM_UYHWOgr-D1qs_-25" style="edgeStyle=orthogonalEdgeStyle;rounded=0;orthogonalLoop=1;jettySize=auto;html=1;entryX=0;entryY=0.5;entryDx=0;entryDy=0;" edge="1" parent="1" source="QVqDBM_UYHWOgr-D1qs_-9" target="QVqDBM_UYHWOgr-D1qs_-10">
          <mxGeometry relative="1" as="geometry" />
        </mxCell>
        <mxCell id="QVqDBM_UYHWOgr-D1qs_-48" style="edgeStyle=orthogonalEdgeStyle;rounded=0;orthogonalLoop=1;jettySize=auto;html=1;entryX=0.5;entryY=0;entryDx=0;entryDy=0;" edge="1" parent="1" source="QVqDBM_UYHWOgr-D1qs_-9" target="QVqDBM_UYHWOgr-D1qs_-12">
          <mxGeometry relative="1" as="geometry">
            <Array as="points">
              <mxPoint x="555" y="99.94" />
              <mxPoint x="960" y="99.94" />
            </Array>
          </mxGeometry>
        </mxCell>
        <mxCell id="QVqDBM_UYHWOgr-D1qs_-9" value="Select applicants" style="html=1;whiteSpace=wrap;aspect=fixed;shape=isoRectangle;" vertex="1" parent="1">
          <mxGeometry x="480" y="144.94" width="150" height="90" as="geometry" />
        </mxCell>
        <mxCell id="QVqDBM_UYHWOgr-D1qs_-28" style="edgeStyle=orthogonalEdgeStyle;rounded=0;orthogonalLoop=1;jettySize=auto;html=1;" edge="1" parent="1" source="QVqDBM_UYHWOgr-D1qs_-10" target="QVqDBM_UYHWOgr-D1qs_-11">
          <mxGeometry relative="1" as="geometry" />
        </mxCell>
        <mxCell id="QVqDBM_UYHWOgr-D1qs_-10" value="Suitable for the job" style="rounded=0;whiteSpace=wrap;html=1;" vertex="1" parent="1">
          <mxGeometry x="720" y="159.94" width="120" height="60" as="geometry" />
        </mxCell>
        <mxCell id="QVqDBM_UYHWOgr-D1qs_-29" style="edgeStyle=orthogonalEdgeStyle;rounded=0;orthogonalLoop=1;jettySize=auto;html=1;entryX=1;entryY=0.5;entryDx=0;entryDy=0;" edge="1" parent="1" source="QVqDBM_UYHWOgr-D1qs_-11" target="QVqDBM_UYHWOgr-D1qs_-13">
          <mxGeometry relative="1" as="geometry" />
        </mxCell>
        <mxCell id="QVqDBM_UYHWOgr-D1qs_-39" style="edgeStyle=orthogonalEdgeStyle;rounded=0;orthogonalLoop=1;jettySize=auto;html=1;entryX=1;entryY=0.5;entryDx=0;entryDy=0;" edge="1" parent="1" source="QVqDBM_UYHWOgr-D1qs_-11" target="QVqDBM_UYHWOgr-D1qs_-20">
          <mxGeometry relative="1" as="geometry">
            <Array as="points">
              <mxPoint x="780" y="429.94" />
            </Array>
          </mxGeometry>
        </mxCell>
        <mxCell id="QVqDBM_UYHWOgr-D1qs_-46" style="edgeStyle=orthogonalEdgeStyle;rounded=0;orthogonalLoop=1;jettySize=auto;html=1;entryX=1;entryY=0.5;entryDx=0;entryDy=0;" edge="1" parent="1" source="QVqDBM_UYHWOgr-D1qs_-12" target="QVqDBM_UYHWOgr-D1qs_-20">
          <mxGeometry relative="1" as="geometry" />
        </mxCell>
        <mxCell id="QVqDBM_UYHWOgr-D1qs_-12" value="Not Suitable for the job" style="rounded=0;whiteSpace=wrap;html=1;" vertex="1" parent="1">
          <mxGeometry x="900" y="399.94" width="120" height="60" as="geometry" />
        </mxCell>
        <mxCell id="QVqDBM_UYHWOgr-D1qs_-30" style="edgeStyle=orthogonalEdgeStyle;rounded=0;orthogonalLoop=1;jettySize=auto;html=1;entryX=0.994;entryY=0.494;entryDx=0;entryDy=0;entryPerimeter=0;" edge="1" parent="1" source="QVqDBM_UYHWOgr-D1qs_-13" target="QVqDBM_UYHWOgr-D1qs_-15">
          <mxGeometry relative="1" as="geometry" />
        </mxCell>
        <mxCell id="QVqDBM_UYHWOgr-D1qs_-13" value="Interview" style="rounded=0;whiteSpace=wrap;html=1;" vertex="1" parent="1">
          <mxGeometry x="495" y="284.94" width="120" height="60" as="geometry" />
        </mxCell>
        <mxCell id="QVqDBM_UYHWOgr-D1qs_-31" style="edgeStyle=orthogonalEdgeStyle;rounded=0;orthogonalLoop=1;jettySize=auto;html=1;entryX=0.5;entryY=0;entryDx=0;entryDy=0;" edge="1" parent="1" source="QVqDBM_UYHWOgr-D1qs_-15" target="QVqDBM_UYHWOgr-D1qs_-16">
          <mxGeometry relative="1" as="geometry" />
        </mxCell>
        <mxCell id="QVqDBM_UYHWOgr-D1qs_-40" style="edgeStyle=orthogonalEdgeStyle;rounded=0;orthogonalLoop=1;jettySize=auto;html=1;entryX=0;entryY=0.5;entryDx=0;entryDy=0;" edge="1" parent="1" source="QVqDBM_UYHWOgr-D1qs_-15" target="QVqDBM_UYHWOgr-D1qs_-20">
          <mxGeometry relative="1" as="geometry">
            <mxPoint x="480" y="429.94" as="targetPoint" />
            <Array as="points">
              <mxPoint x="340" y="429.94" />
            </Array>
          </mxGeometry>
        </mxCell>
        <mxCell id="QVqDBM_UYHWOgr-D1qs_-15" value="&lt;div&gt;Check Qualification&lt;/div&gt;&lt;div&gt;&amp;nbsp;based on the criteria&lt;/div&gt;" style="html=1;whiteSpace=wrap;aspect=fixed;shape=isoRectangle;" vertex="1" parent="1">
          <mxGeometry x="265" y="269.94" width="150" height="90" as="geometry" />
        </mxCell>
        <mxCell id="QVqDBM_UYHWOgr-D1qs_-32" style="edgeStyle=orthogonalEdgeStyle;rounded=0;orthogonalLoop=1;jettySize=auto;html=1;" edge="1" parent="1" source="QVqDBM_UYHWOgr-D1qs_-16" target="QVqDBM_UYHWOgr-D1qs_-17">
          <mxGeometry relative="1" as="geometry" />
        </mxCell>
        <mxCell id="QVqDBM_UYHWOgr-D1qs_-16" value="Technical Interview" style="rounded=0;whiteSpace=wrap;html=1;" vertex="1" parent="1">
          <mxGeometry x="280" y="499.94" width="120" height="60" as="geometry" />
        </mxCell>
        <mxCell id="QVqDBM_UYHWOgr-D1qs_-36" style="edgeStyle=orthogonalEdgeStyle;rounded=0;orthogonalLoop=1;jettySize=auto;html=1;entryX=0.5;entryY=1;entryDx=0;entryDy=0;" edge="1" parent="1" source="QVqDBM_UYHWOgr-D1qs_-17" target="QVqDBM_UYHWOgr-D1qs_-20">
          <mxGeometry relative="1" as="geometry">
            <mxPoint x="560" y="619.94" as="targetPoint" />
          </mxGeometry>
        </mxCell>
        <mxCell id="QVqDBM_UYHWOgr-D1qs_-44" style="edgeStyle=orthogonalEdgeStyle;rounded=0;orthogonalLoop=1;jettySize=auto;html=1;entryX=0;entryY=0.5;entryDx=0;entryDy=0;" edge="1" parent="1" source="QVqDBM_UYHWOgr-D1qs_-17" target="QVqDBM_UYHWOgr-D1qs_-21">
          <mxGeometry relative="1" as="geometry" />
        </mxCell>
        <mxCell id="QVqDBM_UYHWOgr-D1qs_-17" value="&lt;div&gt;Check Qualification&lt;/div&gt;&lt;div&gt;&amp;nbsp;based on the criteria&lt;/div&gt;" style="html=1;whiteSpace=wrap;aspect=fixed;shape=isoRectangle;" vertex="1" parent="1">
          <mxGeometry x="265" y="629.94" width="150" height="90" as="geometry" />
        </mxCell>
        <mxCell id="QVqDBM_UYHWOgr-D1qs_-20" value="Send Thank you Email" style="rounded=1;whiteSpace=wrap;html=1;" vertex="1" parent="1">
          <mxGeometry x="500" y="399.94" width="120" height="60" as="geometry" />
        </mxCell>
        <mxCell id="QVqDBM_UYHWOgr-D1qs_-21" value="Give Job Offer" style="rounded=1;whiteSpace=wrap;html=1;" vertex="1" parent="1">
          <mxGeometry x="740" y="644.94" width="120" height="60" as="geometry" />
        </mxCell>
        <mxCell id="QVqDBM_UYHWOgr-D1qs_-41" value="Qualified" style="text;html=1;strokeColor=none;fillColor=none;align=center;verticalAlign=middle;whiteSpace=wrap;rounded=0;" vertex="1" parent="1">
          <mxGeometry x="310" y="439.94" width="60" height="30" as="geometry" />
        </mxCell>
        <mxCell id="QVqDBM_UYHWOgr-D1qs_-42" value="Not Qualified" style="text;html=1;strokeColor=none;fillColor=none;align=center;verticalAlign=middle;whiteSpace=wrap;rounded=0;" vertex="1" parent="1">
          <mxGeometry x="410" y="399.94" width="60" height="30" as="geometry" />
        </mxCell>
        <mxCell id="QVqDBM_UYHWOgr-D1qs_-43" value="Qualified" style="text;html=1;strokeColor=none;fillColor=none;align=center;verticalAlign=middle;whiteSpace=wrap;rounded=0;" vertex="1" parent="1">
          <mxGeometry x="620" y="674.94" width="60" height="30" as="geometry" />
        </mxCell>
        <mxCell id="QVqDBM_UYHWOgr-D1qs_-45" value="Not Qualified" style="text;html=1;strokeColor=none;fillColor=none;align=center;verticalAlign=middle;whiteSpace=wrap;rounded=0;" vertex="1" parent="1">
          <mxGeometry x="560" y="579.94" width="60" height="30" as="geometry" />
        </mxCell>
        <mxCell id="QVqDBM_UYHWOgr-D1qs_-11" value="&lt;div&gt;Check Qualification&lt;/div&gt;&lt;div&gt;&amp;nbsp;based on the criteria&lt;/div&gt;" style="html=1;whiteSpace=wrap;aspect=fixed;shape=isoRectangle;" vertex="1" parent="1">
          <mxGeometry x="705" y="269.94" width="150" height="90" as="geometry" />
        </mxCell>
        <mxCell id="QVqDBM_UYHWOgr-D1qs_-47" value="" style="edgeStyle=orthogonalEdgeStyle;rounded=0;orthogonalLoop=1;jettySize=auto;html=1;endArrow=none;" edge="1" parent="1" source="QVqDBM_UYHWOgr-D1qs_-10" target="QVqDBM_UYHWOgr-D1qs_-11">
          <mxGeometry relative="1" as="geometry">
            <mxPoint x="780.0588235294117" y="219.94" as="sourcePoint" />
            <mxPoint x="889.9411764705883" y="399.94" as="targetPoint" />
          </mxGeometry>
        </mxCell>
        <mxCell id="QVqDBM_UYHWOgr-D1qs_-50" value="Not Qualified" style="text;html=1;strokeColor=none;fillColor=none;align=center;verticalAlign=middle;whiteSpace=wrap;rounded=0;" vertex="1" parent="1">
          <mxGeometry x="750" y="374.94" width="60" height="30" as="geometry" />
        </mxCell>
        <mxCell id="QVqDBM_UYHWOgr-D1qs_-51" value="Qualified" style="text;html=1;strokeColor=none;fillColor=none;align=center;verticalAlign=middle;whiteSpace=wrap;rounded=0;" vertex="1" parent="1">
          <mxGeometry x="640" y="289.94" width="60" height="30" as="geometry" />
        </mxCell>
      </root>
    </mxGraphModel>
  </diagram>
</mxfile>
